<?xml version="1.0" encoding="UTF-8"?>
<!DOCTYPE svg PUBLIC "-//W3C//DTD SVG 1.1//EN" "http://www.w3.org/Graphics/SVG/1.1/DTD/svg11.dtd">
<!-- Creator: CorelDRAW 2020 (64-Bit) -->
<svg xmlns="http://www.w3.org/2000/svg" xml:space="preserve" width="917px" height="1632px" version="1.1" style="shape-rendering:geometricPrecision; text-rendering:geometricPrecision; image-rendering:optimizeQuality; fill-rule:evenodd; clip-rule:evenodd"
viewBox="0 0 78.51 139.69"
 xmlns:xlink="http://www.w3.org/1999/xlink"
 xmlns:xodm="http://www.corel.com/coreldraw/odm/2003">
 <defs>
  <style type="text/css">
   <![CDATA[
    .str0 {stroke:#ffffff;stroke-width:0.18;stroke-miterlimit:2.61313}
    .fil0 {fill:#ffffff}
   ]]>
  </style>
 </defs>
 <g id="Layer_x0020_1">
  <metadata id="CorelCorpID_0Corel-Layer"/>
  <g id="_1379813541072">
   <path class="fil0 str0" d="M14.42 31.03c-5.8,3.76 -10.71,8.8 -14.33,14.7 0,0.02 0,0.04 0,0.06 0,4.46 0.91,8.7 2.55,12.56 3.12,-2.59 6.58,-4.78 10.3,-6.49 0.47,-0.69 0.96,-1.36 1.48,-2.01l0 -0.41c-0.13,-1.2 -0.2,-2.42 -0.2,-3.65 0,-1.24 0.07,-2.46 0.2,-3.66l0 -11.1z"/>
   <path class="fil0 str0" d="M0.09 45.73c3.62,-5.9 8.53,-10.94 14.33,-14.7l0 -11.99c-8.63,5.75 -14.31,15.56 -14.33,26.69z"/>
   <path class="fil0 str0" d="M2.64 58.35c-1.64,-3.86 -2.55,-8.1 -2.55,-12.56 0,4.56 0.66,8.96 1.89,13.12 0.22,-0.19 0.44,-0.37 0.66,-0.56z"/>
   <path class="fil0 str0" d="M0.09 45.69c0.03,-11.12 5.72,-20.91 14.33,-26.65l0 -6.72c-8.81,8.4 -14.31,20.25 -14.33,33.37z"/>
   <path class="fil0 str0" d="M14.42 31.03l0 11.1c0.58,-5.1 2.35,-9.85 5.04,-13.94 -1.74,0.84 -3.43,1.79 -5.04,2.84z"/>
   <path class="fil0 str0" d="M14.42 31.03c1.61,-1.05 3.3,-2 5.04,-2.84 4.5,-6.85 11.55,-11.88 19.8,-13.73 -2.28,-0.51 -4.64,-0.78 -7.07,-0.78 -6.57,0 -12.68,1.98 -17.77,5.36l0 11.99z"/>
   <path class="fil0 str0" d="M14.42 19.04c5.09,-3.38 11.2,-5.36 17.77,-5.36 2.43,0 4.79,0.27 7.07,0.78 2.27,-0.51 4.63,-0.78 7.06,-0.78 17.4,0 31.57,13.85 32.09,31.12 0,0.01 0,0.01 0,0.01 -0.46,-22.69 -17.28,-41.37 -39.15,-44.72 -9.56,1.47 -18.15,5.86 -24.84,12.23l0 6.72z"/>
   <path class="fil0 str0" d="M39.26 14.46c8.09,1.82 15.03,6.69 19.53,13.34 8.05,3.69 14.86,9.63 19.62,17 -0.52,-17.27 -14.69,-31.12 -32.09,-31.12 -2.43,0 -4.79,0.27 -7.06,0.78z"/>
   <path class="fil0 str0" d="M58.79 27.8c3.48,5.13 5.51,11.32 5.51,17.99 0,1.15 -0.06,2.28 -0.18,3.4 0.82,0.97 1.58,2 2.28,3.06 3.41,1.65 6.59,3.7 9.47,6.1 1.65,-3.86 2.55,-8.1 2.55,-12.56 0,-0.33 0,-0.66 -0.01,-0.99 -4.76,-7.37 -11.57,-13.31 -19.62,-17z"/>
   <path class="fil0 str0" d="M75.87 58.35c-2.88,-2.4 -6.06,-4.45 -9.47,-6.1 2.62,4 4.38,8.61 5,13.58 1.81,-2.26 3.32,-4.77 4.47,-7.48z"/>
   <path class="fil0 str0" d="M66.4 52.25c-0.7,-1.06 -1.46,-2.09 -2.28,-3.06 -0.07,0.65 -0.16,1.29 -0.26,1.93 0.86,0.35 1.71,0.73 2.54,1.13z"/>
   <path class="fil0 str0" d="M66.4 52.25c-0.83,-0.4 -1.68,-0.78 -2.54,-1.13 -0.42,2.52 -1.14,4.95 -2.11,7.23 3.15,2.63 5.96,5.67 8.32,9.04 0.46,-0.51 0.9,-1.02 1.33,-1.56 -0.62,-4.97 -2.38,-9.58 -5,-13.58z"/>
   <path class="fil0 str0" d="M70.07 67.39c-2.36,-3.37 -5.17,-6.41 -8.32,-9.04 -0.88,2.07 -1.98,4.03 -3.25,5.84 3.35,1.38 6.41,3.3 9.08,5.66 0.87,-0.78 1.7,-1.6 2.49,-2.46z"/>
   <path class="fil0 str0" d="M75.87 58.35c-1.15,2.71 -2.66,5.22 -4.47,7.48 0.16,1.3 0.24,2.62 0.25,3.97 0.01,0.01 0.02,0.03 0.03,0.05 2.06,-3.39 3.71,-7.05 4.85,-10.94 -0.21,-0.19 -0.44,-0.37 -0.66,-0.56z"/>
   <path class="fil0 str0" d="M71.65 69.8c-0.01,-1.35 -0.09,-2.67 -0.25,-3.97 -0.43,0.54 -0.87,1.05 -1.33,1.56 0.55,0.78 1.08,1.59 1.58,2.41z"/>
   <path class="fil0 str0" d="M71.65 69.8c-0.5,-0.82 -1.03,-1.63 -1.58,-2.41 -0.79,0.86 -1.62,1.68 -2.49,2.46 0.87,0.77 1.7,1.59 2.49,2.45 0.55,-0.78 1.08,-1.58 1.58,-2.4 0,-0.02 0,-0.04 0,-0.05 0,-0.02 0,-0.04 0,-0.05z"/>
   <path class="fil0 str0" d="M67.58 69.85c-2.67,-2.36 -5.73,-4.28 -9.08,-5.66 -1.46,2.08 -3.15,3.98 -5.05,5.66 1.9,1.67 3.59,3.57 5.05,5.65 3.35,-1.37 6.41,-3.3 9.08,-5.65z"/>
   <path class="fil0 str0" d="M67.58 69.85c-2.67,2.35 -5.73,4.28 -9.08,5.65 1.27,1.82 2.37,3.77 3.25,5.84 3.15,-2.63 5.96,-5.67 8.32,-9.04 -0.79,-0.86 -1.62,-1.68 -2.49,-2.45z"/>
   <path class="fil0 str0" d="M70.07 72.3c0.46,0.51 0.9,1.03 1.33,1.56 0.16,-1.3 0.24,-2.62 0.25,-3.96 -0.5,0.82 -1.03,1.62 -1.58,2.4z"/>
   <path class="fil0 str0" d="M71.65 69.9c-0.01,1.34 -0.09,2.66 -0.25,3.96 1.81,2.26 3.32,4.78 4.47,7.48 0.22,-0.19 0.45,-0.37 0.66,-0.56 -1.14,-3.88 -2.79,-7.55 -4.85,-10.93 -0.01,0.01 -0.02,0.03 -0.03,0.05z"/>
   <path class="fil0 str0" d="M71.4 73.86c-0.43,-0.53 -0.87,-1.05 -1.33,-1.56 -2.36,3.37 -5.17,6.41 -8.32,9.04 0.97,2.29 1.69,4.71 2.11,7.23 0.86,-0.35 1.71,-0.73 2.54,-1.13 2.62,-4 4.38,-8.61 5,-13.58z"/>
   <path class="fil0 str0" d="M71.4 73.86c-0.62,4.97 -2.38,9.58 -5,13.58 3.41,-1.65 6.59,-3.7 9.47,-6.1 -1.15,-2.7 -2.66,-5.22 -4.47,-7.48z"/>
   <path class="fil0 str0" d="M75.87 81.34c-2.88,2.4 -6.06,4.45 -9.47,6.1 -0.7,1.07 -1.46,2.09 -2.28,3.06 0.12,1.12 0.18,2.26 0.18,3.41 0,6.66 -2.03,12.85 -5.51,17.98 8.05,-3.69 14.86,-9.63 19.62,-17 0.01,-0.33 0.01,-0.66 0.01,-0.98 0,-4.46 -0.9,-8.71 -2.55,-12.57z"/>
   <path class="fil0 str0" d="M75.87 81.34c1.65,3.86 2.55,8.11 2.55,12.57 0,-4.56 -0.66,-8.97 -1.89,-13.13 -0.21,0.19 -0.44,0.37 -0.66,0.56z"/>
   <path class="fil0 str0" d="M64.12 90.5c0.82,-0.97 1.58,-1.99 2.28,-3.06 -0.83,0.4 -1.68,0.78 -2.54,1.13 0.1,0.64 0.19,1.28 0.26,1.93z"/>
   <path class="fil0 str0" d="M20.01 75.5c1.46,-2.08 3.16,-3.98 5.05,-5.65 -1.89,-1.68 -3.59,-3.58 -5.05,-5.66 -1.97,0.81 -3.84,1.81 -5.59,2.98l0 5.36c1.75,1.16 3.62,2.16 5.59,2.97z"/>
   <path class="fil0 str0" d="M14.42 72.53l0 -5.36c-1.22,0.81 -2.39,1.71 -3.48,2.68 1.09,0.97 2.26,1.86 3.48,2.68z"/>
   <path class="fil0 str0" d="M20.01 75.5c-1.97,-0.81 -3.84,-1.81 -5.59,-2.97l0 6.72c0.76,0.72 1.54,1.42 2.35,2.09 0.88,-2.07 1.97,-4.02 3.24,-5.84z"/>
   <path class="fil0 str0" d="M14.42 79.25l0 -6.72c-1.22,-0.82 -2.39,-1.71 -3.48,-2.68 -0.88,0.77 -1.71,1.59 -2.49,2.45 1.76,2.51 3.76,4.84 5.97,6.95z"/>
   <path class="fil0 str0" d="M14.42 79.25c-2.21,-2.11 -4.21,-4.44 -5.97,-6.95 -0.29,0.31 -0.56,0.63 -0.83,0.95 0.56,5.36 2.45,10.33 5.32,14.58 0.49,0.22 0.98,0.44 1.48,0.65l0 -9.23z"/>
   <path class="fil0 str0" d="M14.42 79.25l0 9.23c0.08,0.03 0.16,0.06 0.24,0.09 0.42,-2.52 1.13,-4.94 2.11,-7.23 -0.81,-0.67 -1.59,-1.37 -2.35,-2.09z"/>
   <path class="fil0 str0" d="M20.01 64.19c1.46,2.08 3.16,3.98 5.05,5.66 3.98,-3.52 8.84,-6.06 14.2,-7.27 -2.28,-0.51 -4.64,-0.78 -7.07,-0.78 -4.31,0 -8.42,0.85 -12.18,2.39z"/>
   <path class="fil0 str0" d="M53.45 69.85c-3.98,3.51 -8.83,6.06 -14.19,7.26 2.27,0.51 4.63,0.78 7.06,0.78 4.31,0 8.42,-0.85 12.18,-2.39 -1.46,-2.08 -3.15,-3.98 -5.05,-5.65z"/>
   <path class="fil0 str0" d="M39.26 77.11c-5.36,-1.2 -10.22,-3.75 -14.2,-7.26 -1.89,1.67 -3.59,3.57 -5.05,5.65 3.76,1.54 7.87,2.39 12.18,2.39 2.43,0 4.79,-0.27 7.07,-0.78z"/>
   <path class="fil0 str0" d="M12.94 87.83c-2.87,-4.25 -4.76,-9.22 -5.32,-14.58 -2.04,2.42 -3.72,5.14 -4.98,8.09 3.12,2.59 6.58,4.78 10.3,6.49z"/>
   <path class="fil0 str0" d="M12.94 87.83c-3.72,-1.71 -7.18,-3.9 -10.3,-6.49 -1.64,3.86 -2.55,8.11 -2.55,12.57 0,0.01 0,0.03 0,0.05 3.62,5.91 8.53,10.94 14.33,14.7l0 -11.1c-0.13,-1.2 -0.2,-2.42 -0.2,-3.65 0,-1.24 0.07,-2.46 0.2,-3.66l0 -0.41c-0.52,-0.65 -1.01,-1.32 -1.48,-2.01z"/>
   <path class="fil0 str0" d="M14.42 108.66c-5.8,-3.76 -10.71,-8.79 -14.33,-14.7 0.02,11.13 5.7,20.94 14.33,26.69l0 -11.99z"/>
   <path class="fil0 str0" d="M14.42 120.65c-8.63,-5.75 -14.31,-15.56 -14.33,-26.69 0,0.01 0,0.02 0,0.04 0.03,11.12 5.72,20.91 14.33,26.65zm0 -11.99c-5.8,-3.76 -10.71,-8.79 -14.33,-14.7 0,0.01 0,0.02 0,0.04 0.02,13.13 5.52,24.97 14.33,33.37l0 -6.72 0 -11.99z"/>
   <path class="fil0 str0" d="M32.19 126.01c-6.57,0 -12.68,-1.97 -17.77,-5.36l0 6.72c6.69,6.37 15.28,10.77 24.84,12.23 21.87,-3.35 38.69,-22.03 39.15,-44.72 0,0 0,0.01 0,0.01 -0.52,17.27 -14.69,31.12 -32.09,31.12 -2.43,0 -4.79,-0.27 -7.06,-0.78 -2.28,0.51 -4.64,0.78 -7.07,0.78z"/>
   <path class="fil0 str0" d="M14.42 120.65c5.09,3.39 11.2,5.36 17.77,5.36 2.43,0 4.79,-0.27 7.07,-0.78 -8.25,-1.85 -15.3,-6.88 -19.8,-13.73 -1.74,-0.84 -3.43,-1.79 -5.04,-2.84l0 11.99z"/>
   <path class="fil0 str0" d="M14.42 108.66c1.61,1.05 3.3,2 5.04,2.84 -2.69,-4.09 -4.46,-8.83 -5.04,-13.94l0 11.1z"/>
   <path class="fil0 str0" d="M7.45 68.86c0.03,-0.81 0.08,-1.62 0.17,-2.42 -2.04,-2.42 -3.72,-5.14 -4.98,-8.09 -0.22,0.19 -0.44,0.37 -0.66,0.56 1.15,3.89 2.79,7.55 4.86,10.94 0.2,-0.33 0.4,-0.66 0.61,-0.99z"/>
   <path class="fil0 str0" d="M2.64 58.35c1.26,2.95 2.94,5.67 4.98,8.09 0.56,-5.36 2.45,-10.33 5.32,-14.58 -3.72,1.71 -7.18,3.9 -10.3,6.49z"/>
   <path class="fil0 str0" d="M61.75 81.34c0.97,2.29 1.69,4.71 2.11,7.23 0.86,-0.35 1.71,-0.73 2.54,-1.13 2.62,-4 4.38,-8.61 5,-13.58 -0.43,-0.53 -0.87,-1.05 -1.33,-1.56 -2.36,3.37 -5.17,6.41 -8.32,9.04z"/>
   <path class="fil0 str0" d="M71.4 73.86c-0.62,4.97 -2.38,9.58 -5,13.58 3.41,-1.65 6.59,-3.7 9.47,-6.1 -1.15,-2.7 -2.66,-5.22 -4.47,-7.48z"/>
   <path class="fil0 str0" d="M71.4 73.86c1.81,2.26 3.32,4.78 4.47,7.48 0.22,-0.19 0.45,-0.37 0.66,-0.56 -1.14,-3.88 -2.79,-7.55 -4.85,-10.93 -0.01,0.01 -0.02,0.03 -0.03,0.05 -0.01,1.34 -0.09,2.66 -0.25,3.96z"/>
   <path class="fil0 str0" d="M71.4 73.86c0.16,-1.3 0.24,-2.62 0.25,-3.96 -0.5,0.82 -1.03,1.62 -1.58,2.4 0.46,0.51 0.9,1.03 1.33,1.56z"/>
   <path class="fil0 str0" d="M75.87 58.35c0.22,0.19 0.45,0.37 0.66,0.56 1.23,-4.16 1.89,-8.56 1.89,-13.12 0,4.46 -0.9,8.7 -2.55,12.56z"/>
   <path class="fil0 str0" d="M61.75 81.34c0.97,2.29 1.69,4.71 2.11,7.23 0.86,-0.35 1.71,-0.73 2.54,-1.13 2.62,-4 4.38,-8.61 5,-13.58 -0.43,-0.53 -0.87,-1.05 -1.33,-1.56 -2.36,3.37 -5.17,6.41 -8.32,9.04z"/>
   <path class="fil0 str0" d="M71.4 73.86c-0.62,4.97 -2.38,9.58 -5,13.58 3.41,-1.65 6.59,-3.7 9.47,-6.1 -1.15,-2.7 -2.66,-5.22 -4.47,-7.48z"/>
   <path class="fil0 str0" d="M71.4 73.86c1.81,2.26 3.32,4.78 4.47,7.48 0.22,-0.19 0.45,-0.37 0.66,-0.56 -1.14,-3.88 -2.79,-7.55 -4.85,-10.93 -0.01,0.01 -0.02,0.03 -0.03,0.05 -0.01,1.34 -0.09,2.66 -0.25,3.96z"/>
   <path class="fil0 str0" d="M71.4 73.86c0.16,-1.3 0.24,-2.62 0.25,-3.96 -0.5,0.82 -1.03,1.62 -1.58,2.4 0.46,0.51 0.9,1.03 1.33,1.56z"/>
   <path class="fil0 str0" d="M16.77 81.34c6.3,5.24 14.01,8.84 22.49,10.14 8.47,-1.3 16.19,-4.9 22.49,-10.14 -0.88,-2.07 -1.98,-4.02 -3.25,-5.84 -3.76,1.54 -7.87,2.39 -12.18,2.39 -2.43,0 -4.79,-0.27 -7.06,-0.78 -2.28,0.51 -4.64,0.78 -7.07,0.78 -4.31,0 -8.42,-0.85 -12.18,-2.39 -1.27,1.82 -2.36,3.77 -3.24,5.84z"/>
   <path class="fil0 str0" d="M14.42 88.48c-0.5,-0.21 -0.99,-0.43 -1.48,-0.65 0.47,0.69 0.96,1.36 1.48,2.01l0 -1.36z"/>
  </g>
  <path class="fil0 str0" d="M20.01 64.19c1.46,2.08 3.16,3.98 5.05,5.66 3.98,-3.52 8.84,-6.06 14.2,-7.27 -2.28,-0.51 -4.64,-0.78 -7.07,-0.78 -4.31,0 -8.42,0.85 -12.18,2.39z"/>
  <path class="fil0 str0" d="M46.32 126.01c-2.43,0 -4.79,-0.27 -7.06,-0.78 -2.28,0.51 -4.64,0.78 -7.07,0.78 -6.57,0 -12.68,-1.97 -17.77,-5.36l0 6.72c6.69,6.37 15.28,10.77 24.84,12.23 21.87,-3.35 38.69,-22.03 39.15,-44.72 0,0 0,0.01 0,0.01 -0.52,17.27 -14.69,31.12 -32.09,31.12z"/>
  <path class="fil0 str0" d="M39.26 125.23c-8.25,-1.85 -15.3,-6.88 -19.8,-13.73 -1.74,-0.84 -3.43,-1.79 -5.04,-2.84l0 11.99c5.09,3.39 11.2,5.36 17.77,5.36 2.43,0 4.79,-0.27 7.07,-0.78z"/>
  <path class="fil0 str0" d="M14.42 120.65l0 -11.99c-5.8,-3.76 -10.71,-8.79 -14.33,-14.7 0,0.01 0,0.02 0,0.04 0.03,11.12 5.72,20.91 14.33,26.65z"/>
  <path class="fil0 str0" d="M14.42 120.65c-8.61,-5.74 -14.3,-15.52 -14.33,-26.64 0.03,13.12 5.52,24.96 14.33,33.36l0 -6.72z"/>
  <path class="fil0 str0" d="M0.09 93.96c3.62,5.91 8.53,10.94 14.33,14.7l0 -11.1c-0.13,-1.2 -0.2,-2.42 -0.2,-3.65 0,-1.24 0.07,-2.46 0.2,-3.66l0 -0.41c-0.52,-0.65 -1.01,-1.32 -1.48,-2.01 -3.72,-1.71 -7.18,-3.9 -10.3,-6.49 -1.64,3.86 -2.55,8.11 -2.55,12.57 0,0.01 0,0.03 0,0.05z"/>
  <path class="fil0 str0" d="M14.42 97.56l0 11.1c1.61,1.05 3.3,2 5.04,2.84 -2.69,-4.09 -4.46,-8.83 -5.04,-13.94z"/>
  <path class="fil0 str0" d="M2.64 81.34c3.12,2.59 6.58,4.78 10.3,6.49 -2.87,-4.25 -4.76,-9.22 -5.32,-14.58 -2.04,2.42 -3.72,5.14 -4.98,8.09z"/>
  <path class="fil0 str0" d="M7.62 73.25c0.56,5.36 2.45,10.33 5.32,14.58 0.49,0.22 0.98,0.44 1.48,0.65l0 -9.23c-2.21,-2.11 -4.21,-4.44 -5.97,-6.95 -0.29,0.31 -0.56,0.63 -0.83,0.95z"/>
  <path class="fil0 str0" d="M14.42 72.53c1.75,1.16 3.62,2.16 5.59,2.97 1.46,-2.08 3.16,-3.98 5.05,-5.65 -1.89,-1.68 -3.59,-3.58 -5.05,-5.66 -1.97,0.81 -3.84,1.81 -5.59,2.98l0 5.36z"/>
  <path class="fil0 str0" d="M20.01 75.5c-1.97,-0.81 -3.84,-1.81 -5.59,-2.97l0 6.72c0.76,0.72 1.54,1.42 2.35,2.09 0.88,-2.07 1.97,-4.02 3.24,-5.84z"/>
  <path class="fil0 str0" d="M14.42 79.25l0 -6.72c-1.22,-0.82 -2.39,-1.71 -3.48,-2.68 -0.88,0.77 -1.71,1.59 -2.49,2.45 1.76,2.51 3.76,4.84 5.97,6.95z"/>
  <path class="fil0 str0" d="M16.77 81.34c-0.81,-0.67 -1.59,-1.37 -2.35,-2.09l0 9.23c0.08,0.03 0.16,0.06 0.24,0.09 0.42,-2.52 1.13,-4.94 2.11,-7.23z"/>
  <path class="fil0 str0" d="M10.94 69.85c1.09,0.97 2.26,1.86 3.48,2.68l0 -5.36c-1.22,0.81 -2.39,1.71 -3.48,2.68z"/>
  <path class="fil0 str0" d="M14.42 88.48c-0.5,-0.21 -0.99,-0.43 -1.48,-0.65 0.47,0.69 0.96,1.36 1.48,2.01l0 -1.36z"/>
  <path class="fil0 str0" d="M16.77 81.34c6.3,5.24 14.01,8.84 22.49,10.14 8.47,-1.3 16.19,-4.9 22.49,-10.14 -0.88,-2.07 -1.98,-4.02 -3.25,-5.84 -3.76,1.54 -7.87,2.39 -12.18,2.39 -2.43,0 -4.79,-0.27 -7.06,-0.78 -2.28,0.51 -4.64,0.78 -7.07,0.78 -4.31,0 -8.42,-0.85 -12.18,-2.39 -1.27,1.82 -2.36,3.77 -3.24,5.84z"/>
  <path class="fil0 str0" d="M39.26 77.11c2.27,0.51 4.63,0.78 7.06,0.78 4.31,0 8.42,-0.85 12.18,-2.39 -1.46,-2.08 -3.15,-3.98 -5.05,-5.65 -3.98,3.51 -8.83,6.06 -14.19,7.26z"/>
  <path class="fil0 str0" d="M39.26 77.11c-5.36,-1.2 -10.22,-3.75 -14.2,-7.26 -1.89,1.67 -3.59,3.57 -5.05,5.65 3.76,1.54 7.87,2.39 12.18,2.39 2.43,0 4.79,-0.27 7.07,-0.78z"/>
 </g>
</svg>
